<?xml version="1.0" standalone="no"?>
<!DOCTYPE svg PUBLIC "-//W3C//DTD SVG 20010904//EN"
 "http://www.w3.org/TR/2001/REC-SVG-20010904/DTD/svg10.dtd">
<svg version="1.0" xmlns="http://www.w3.org/2000/svg"
 width="501.000000pt" height="501.000000pt" viewBox="0 0 501.000000 501.000000"
 preserveAspectRatio="xMidYMid meet">
<metadata>
Created by potrace 1.14, written by Peter Selinger 2001-2017
</metadata>
<g transform="translate(0.000000,501.000000) scale(0.100000,-0.100000)"
fill="#000000" stroke="none">
<path d="M2095 4880 c-3 -5 -19 -10 -35 -10 -16 0 -45 -9 -65 -20 -20 -11 -54
-20 -78 -20 -43 0 -85 -12 -170 -49 -27 -12 -57 -21 -68 -21 -10 0 -34 -9 -54
-20 -20 -11 -44 -20 -55 -20 -10 0 -22 -4 -25 -10 -3 -5 -15 -10 -25 -10 -11
0 -36 -11 -56 -25 -20 -14 -42 -25 -49 -25 -7 0 -29 -13 -50 -30 -21 -16 -43
-30 -50 -30 -16 0 -73 -29 -80 -40 -3 -5 -23 -17 -43 -27 -20 -9 -55 -33 -77
-52 -37 -32 -78 -63 -165 -126 -15 -11 -38 -37 -51 -57 -13 -21 -27 -38 -31
-38 -5 0 -8 -6 -8 -14 0 -21 -46 -65 -77 -72 -29 -8 -121 -94 -163 -154 -13
-19 -27 -37 -30 -40 -4 -3 -22 -27 -41 -54 -19 -27 -46 -66 -61 -87 -25 -35
-62 -98 -85 -145 -6 -10 -18 -32 -27 -49 -9 -16 -24 -46 -32 -65 -9 -19 -22
-46 -30 -60 -72 -132 -114 -238 -114 -287 0 -27 -7 -57 -16 -68 -34 -45 -74
-267 -74 -415 0 -37 -5 -71 -10 -76 -14 -14 -7 -393 9 -459 6 -27 16 -90 21
-140 5 -49 19 -115 30 -145 11 -30 20 -63 20 -72 0 -24 46 -122 65 -138 8 -7
15 -28 15 -49 0 -51 23 -110 59 -153 17 -20 31 -48 31 -63 0 -24 19 -57 61
-110 8 -11 21 -39 27 -61 8 -26 33 -63 67 -100 30 -33 55 -68 55 -79 0 -12 28
-48 65 -85 36 -35 65 -69 65 -75 1 -5 15 -19 33 -30 17 -11 36 -30 42 -41 17
-34 37 -55 78 -81 21 -13 46 -37 55 -54 10 -16 21 -29 26 -29 5 0 31 -19 57
-42 154 -135 173 -148 218 -148 28 0 60 -24 87 -65 9 -14 24 -25 33 -25 9 0
32 -14 51 -30 19 -16 45 -30 57 -30 12 0 25 -4 28 -10 3 -5 23 -10 43 -10 23
0 51 -9 74 -25 20 -14 47 -25 60 -25 13 0 39 -13 58 -30 19 -16 44 -29 56 -30
11 0 24 -4 30 -9 5 -5 29 -11 54 -14 84 -10 221 -40 241 -53 33 -20 143 -27
454 -28 340 0 368 3 485 44 31 11 74 20 95 20 38 0 151 34 169 51 6 5 25 9 44
9 34 0 149 49 259 111 18 10 52 19 74 19 38 0 47 -6 126 -85 47 -47 92 -85
101 -85 10 0 46 -16 82 -35 l64 -35 220 0 220 0 40 27 c51 33 176 154 176 168
0 18 53 63 79 67 17 2 31 16 46 45 11 23 31 54 44 67 23 25 24 27 23 262 0
158 -4 240 -11 247 -6 6 -11 21 -11 32 0 12 -9 30 -20 40 -11 10 -20 23 -20
29 0 6 -43 54 -95 106 -93 93 -95 96 -95 141 0 40 5 52 30 76 17 15 30 35 30
44 0 20 27 76 52 108 10 13 18 34 18 47 0 13 14 52 30 86 24 48 30 75 30 124
0 35 5 66 10 69 6 3 10 25 10 49 0 29 6 48 19 60 26 24 33 125 33 486 0 355
-7 444 -33 481 -10 15 -19 36 -19 47 0 12 -4 24 -10 27 -5 3 -10 40 -10 81 0
73 -8 99 -43 140 -10 12 -20 39 -23 60 -9 69 -13 80 -39 110 -14 16 -25 42
-26 59 0 17 -13 51 -27 76 -15 26 -49 84 -75 130 -62 109 -141 215 -230 311
-40 43 -99 107 -131 143 -33 36 -63 65 -68 65 -6 0 -33 22 -61 49 -29 27 -76
67 -106 88 -30 21 -72 54 -95 74 -23 20 -63 49 -91 64 -27 15 -52 30 -55 34
-3 3 -18 13 -35 21 -16 7 -43 23 -60 35 -16 12 -46 29 -66 38 -20 9 -42 23
-49 32 -7 8 -25 15 -40 15 -15 0 -54 14 -85 30 -31 17 -67 30 -80 30 -23 0
-63 14 -142 51 -24 10 -63 19 -87 19 -41 0 -59 5 -121 31 -30 13 -182 20 -547
25 -217 3 -329 1 -333 -6z m960 -144 c72 -25 174 -57 228 -71 100 -25 196 -70
322 -149 39 -24 90 -57 115 -72 237 -145 374 -263 525 -454 33 -41 65 -81 72
-88 25 -26 181 -270 219 -342 95 -180 179 -421 220 -635 21 -112 37 -397 31
-565 -7 -180 -26 -292 -66 -387 -16 -38 -32 -84 -36 -103 -4 -19 -15 -51 -25
-70 -9 -19 -23 -58 -30 -87 -6 -29 -18 -57 -26 -64 -8 -6 -21 -36 -30 -66 -9
-30 -29 -69 -44 -86 -27 -30 -33 -32 -112 -35 -79 -4 -86 -2 -116 23 -45 38
-42 68 23 195 53 104 95 211 117 295 6 22 22 83 37 135 24 89 26 108 26 320 0
142 -5 250 -13 293 -17 90 -114 422 -151 518 -28 72 -149 315 -187 376 -39 61
-259 314 -302 346 -15 12 -60 51 -99 89 -119 111 -362 258 -523 316 -443 159
-694 185 -1070 112 -117 -23 -300 -78 -388 -116 -79 -35 -297 -144 -357 -179
-89 -52 -283 -212 -365 -302 -45 -48 -167 -202 -205 -257 -79 -113 -153 -259
-210 -411 -20 -55 -45 -116 -55 -135 -10 -19 -25 -71 -35 -115 -9 -44 -27
-111 -38 -150 -40 -131 -34 -604 9 -715 7 -19 18 -64 24 -100 6 -36 22 -88 35
-116 12 -29 26 -67 30 -85 4 -19 18 -53 31 -76 13 -23 24 -48 24 -55 0 -8 13
-35 29 -60 16 -25 32 -55 36 -67 15 -48 151 -242 245 -350 134 -153 270 -274
392 -347 10 -6 26 -18 36 -27 10 -9 41 -29 68 -43 154 -82 239 -124 250 -124
6 0 31 -11 55 -24 27 -14 70 -26 109 -30 35 -3 96 -15 135 -25 69 -19 262 -44
440 -57 140 -10 447 27 600 73 66 20 125 39 131 44 5 4 55 27 110 50 213 88
218 88 258 0 30 -68 35 -144 10 -179 -17 -24 -61 -49 -169 -94 -204 -85 -263
-105 -435 -149 -19 -5 -118 -16 -220 -25 -189 -16 -302 -15 -545 7 -122 11
-271 50 -345 90 -19 10 -66 30 -105 43 -113 38 -188 69 -226 93 -20 13 -43 23
-51 23 -7 0 -37 15 -66 33 -28 17 -70 43 -93 57 -166 98 -231 149 -399 313
-100 96 -194 201 -233 257 -10 14 -34 49 -55 79 -131 189 -251 439 -299 626
-9 33 -26 96 -39 140 -45 157 -61 418 -45 719 18 329 73 559 193 805 81 165
109 208 290 445 110 144 361 374 501 460 18 11 68 43 112 72 92 59 165 97 215
112 19 6 89 31 155 56 148 57 253 82 437 101 218 23 215 23 508 20 l275 -2
130 -47z m-459 -426 c78 0 97 -3 112 -18 14 -14 36 -19 85 -21 37 -1 93 -6
125 -11 31 -6 60 -10 63 -10 3 0 16 -9 29 -20 13 -11 33 -20 44 -20 41 0 129
-28 138 -43 4 -9 28 -19 53 -22 27 -5 56 -18 76 -36 18 -16 41 -29 51 -29 23
0 55 -16 83 -40 11 -10 32 -20 48 -24 15 -3 27 -13 27 -21 0 -9 12 -20 26 -26
15 -5 44 -27 65 -49 22 -22 46 -40 54 -40 8 0 17 -11 21 -24 4 -17 15 -27 35
-31 16 -4 29 -12 28 -18 -3 -27 2 -36 23 -39 13 -2 29 -15 37 -32 7 -16 22
-31 32 -33 10 -3 24 -20 31 -39 7 -20 19 -34 28 -34 17 0 40 -38 40 -66 0 -8
11 -19 25 -24 17 -6 27 -20 32 -41 3 -19 14 -34 28 -39 17 -6 26 -22 35 -59 9
-38 17 -51 30 -51 21 0 26 -11 35 -73 5 -34 13 -47 31 -56 21 -9 24 -17 24
-60 0 -57 13 -98 40 -123 13 -13 19 -39 25 -110 4 -51 12 -100 19 -108 28 -36
37 -94 40 -278 3 -207 -5 -289 -33 -337 -12 -19 -21 -60 -25 -112 -7 -94 -19
-133 -40 -133 -10 0 -16 -18 -21 -67 -3 -38 -7 -75 -8 -83 -1 -8 -13 -17 -27
-20 -21 -4 -25 -11 -26 -41 -2 -65 -12 -89 -38 -89 -21 0 -24 -6 -30 -50 -4
-30 -14 -54 -24 -62 -10 -7 -22 -22 -27 -33 -7 -14 -11 4 -15 65 -6 85 -16
116 -44 140 -9 7 -16 26 -16 41 0 22 -6 32 -24 39 -13 4 -26 20 -30 34 -4 15
-14 26 -27 28 -12 2 -27 12 -33 23 -15 27 -23 32 -66 39 -41 6 -69 29 -50 41
6 4 28 8 48 9 20 1 43 5 50 10 18 11 -10 36 -42 36 -14 0 -28 5 -31 10 -3 6
-14 10 -23 10 -16 -1 -16 -1 1 -11 21 -12 22 -29 2 -29 -8 0 -15 -4 -15 -8 0
-10 -106 -14 -177 -6 -34 3 -53 10 -53 18 0 14 -23 18 -187 37 -61 7 -92 16
-120 35 -32 21 -45 24 -81 19 -62 -9 -85 1 -77 33 9 38 24 52 51 52 20 0 24 5
24 29 0 23 5 30 21 33 12 2 26 11 30 21 5 9 13 25 18 35 4 9 14 17 22 17 7 0
20 24 30 55 9 31 23 56 32 58 10 2 20 30 31 91 9 49 16 96 16 105 0 8 9 30 20
48 19 31 20 51 20 343 0 289 -1 311 -18 322 -13 8 -22 35 -32 98 -10 66 -19
91 -37 108 -14 14 -23 34 -23 55 0 24 -9 42 -34 67 -19 19 -37 43 -41 55 -4
12 -18 25 -31 30 -15 6 -24 18 -24 30 0 15 -11 26 -35 36 -19 8 -35 21 -35 29
0 9 -8 18 -17 21 -51 17 -81 36 -86 54 -3 13 -13 20 -30 20 -36 0 -90 21 -104
41 -20 27 -233 39 -440 23 -82 -6 -95 -9 -124 -35 -18 -16 -44 -29 -58 -29
-44 0 -73 -12 -67 -26 6 -14 -41 -44 -69 -44 -8 0 -15 -9 -15 -20 0 -13 -9
-22 -25 -26 -13 -3 -33 -21 -44 -40 -11 -19 -27 -34 -35 -34 -8 0 -19 -14 -25
-31 -6 -17 -19 -33 -30 -36 -12 -3 -23 -21 -32 -50 -7 -25 -21 -53 -31 -63
-10 -9 -21 -35 -24 -56 -9 -71 -26 -124 -39 -124 -16 0 -28 -129 -22 -234 3
-51 8 -71 20 -78 14 -7 17 -25 17 -91 0 -73 -2 -84 -21 -95 -20 -13 -21 -20
-17 -142 3 -99 7 -133 19 -147 16 -18 33 -73 44 -144 3 -23 12 -38 23 -41 11
-3 22 -23 30 -56 11 -39 19 -51 37 -56 16 -4 25 -14 27 -33 2 -19 10 -29 28
-33 15 -4 26 -15 30 -30 4 -15 14 -26 27 -28 30 -4 45 -26 41 -59 -3 -28 -4
-28 -61 -25 -49 3 -62 0 -87 -22 -29 -24 -83 -35 -197 -39 -24 -1 -43 -5 -43
-9 0 -16 -26 -7 -40 12 -12 17 -25 20 -75 18 -58 -2 -59 -2 -11 -5 52 -4 82
-24 72 -48 -3 -8 -18 -15 -33 -15 -28 -1 -112 -8 -129 -11 -5 -1 -26 -1 -47 0
-29 1 -40 6 -46 23 -5 14 -10 18 -15 10 -4 -7 -12 -10 -17 -6 -6 4 -6 11 2 20
9 11 7 14 -10 14 -14 0 -21 -6 -21 -20 0 -21 -33 -29 -45 -10 -4 6 -11 5 -19
-2 -11 -10 -9 -15 9 -24 12 -6 34 -12 49 -13 51 -3 56 -4 56 -17 0 -15 -31
-34 -54 -34 -9 0 -25 9 -36 20 -24 24 -34 25 -49 6 -9 -11 -9 -19 0 -35 11
-17 10 -23 -4 -39 -9 -10 -17 -22 -17 -27 0 -4 -13 -21 -30 -37 -18 -16 -30
-38 -30 -53 0 -18 -5 -25 -19 -25 -26 0 -32 -21 -38 -125 -3 -49 -9 -94 -14
-99 -6 -6 -9 -4 -9 7 0 9 -9 26 -21 38 -12 12 -22 39 -26 69 -4 36 -9 47 -19
43 -22 -8 -44 16 -44 47 0 38 -9 60 -25 60 -16 0 -35 51 -35 94 0 42 -10 77
-21 71 -15 -10 -37 59 -43 134 -5 54 -12 80 -25 92 -14 13 -20 40 -26 111 -14
170 -13 361 1 473 8 61 14 112 14 114 0 2 6 -2 14 -8 11 -9 14 4 19 72 7 84
22 147 36 147 13 0 31 50 31 86 0 38 15 74 36 87 8 4 17 26 20 49 4 25 18 52
35 69 16 17 29 39 29 49 0 11 10 30 23 42 12 13 30 40 39 60 9 21 22 38 28 38
6 0 20 21 31 46 17 38 25 45 44 42 17 -4 21 -1 18 13 -7 25 14 57 39 61 15 2
24 11 26 26 2 15 14 27 32 34 18 6 30 18 32 31 2 13 13 23 28 27 16 4 26 14
28 28 3 16 12 25 34 29 17 3 34 15 40 28 6 13 28 31 49 41 21 11 42 27 45 36
3 10 17 21 32 24 15 4 39 18 53 31 15 14 45 29 67 34 23 5 52 20 65 33 15 15
42 27 71 31 28 5 46 12 46 20 0 15 42 30 108 39 24 4 55 15 70 26 35 24 114
39 226 42 75 2 90 5 94 20 3 14 18 18 86 20 44 2 87 2 94 1 8 -2 56 -3 108 -3z
m66 -506 c291 -86 462 -356 428 -677 -5 -51 -10 -163 -10 -251 0 -261 -45
-399 -169 -521 -147 -144 -331 -193 -562 -149 -57 11 -92 23 -112 40 -16 13
-35 24 -42 24 -29 0 -142 114 -189 190 -43 71 -92 250 -102 375 -7 93 -2 433
7 473 20 91 50 176 81 231 62 108 204 224 318 260 103 32 251 34 352 5z
m-1475 -1916 c-3 -7 -5 -2 -5 12 0 14 2 19 5 13 2 -7 2 -19 0 -25z m3096 -592
c12 -8 51 -22 87 -32 72 -19 90 -29 90 -51 0 -8 15 -38 34 -66 18 -29 37 -63
41 -76 4 -12 18 -39 31 -58 13 -20 24 -44 24 -53 0 -10 3 -31 6 -47 6 -28 4
-31 -26 -35 -17 -3 -53 1 -81 8 -27 7 -64 10 -82 7 -46 -7 -59 13 -63 98 -4
81 -12 99 -59 134 -31 24 -38 26 -68 16 -69 -23 -86 -60 -84 -189 0 -46 -11
-53 -84 -57 -121 -7 -169 -38 -169 -111 0 -67 63 -104 178 -104 71 0 67 5 76
-119 5 -78 18 -101 68 -127 41 -21 55 -18 97 26 29 30 40 52 45 85 4 25 4 50
1 55 -4 6 -1 26 5 44 11 34 11 34 88 40 42 4 95 8 117 9 l40 2 -3 -43 c-2 -24
-19 -76 -38 -115 -38 -80 -43 -117 -16 -117 16 -1 16 -1 -1 -11 -10 -6 -21 -8
-24 -5 -11 10 -42 -14 -45 -36 -2 -12 -14 -27 -28 -34 -14 -6 -50 -23 -80 -39
-44 -22 -73 -29 -141 -33 -77 -4 -92 -2 -140 20 -30 14 -65 29 -79 33 -50 16
-190 128 -190 153 0 4 -13 26 -29 48 -30 41 -81 209 -81 269 0 60 50 229 81
272 16 23 29 44 29 48 0 10 99 105 109 105 5 0 21 10 37 23 72 57 275 96 327
63z m272 -115 c8 -14 -13 -24 -33 -16 -14 5 -14 7 -2 15 19 12 27 12 35 1z
m60 -69 c0 -18 -20 -15 -23 4 -3 10 1 15 10 12 7 -3 13 -10 13 -16z m65 -92
c0 -40 -13 -53 -24 -24 -11 29 -7 64 9 64 11 0 15 -11 15 -40z m60 -234 c0
-104 -11 -145 -30 -116 -11 16 -14 198 -4 224 5 13 9 14 20 5 10 -8 14 -39 14
-113z m-102 -3 c-2 -27 -7 -48 -13 -48 -5 0 -11 21 -13 48 -3 38 0 47 13 47
13 0 16 -9 13 -47z m42 -212 c0 -16 -7 -34 -15 -41 -13 -11 -15 -7 -15 22 0
19 3 38 7 41 14 15 23 6 23 -22z"/>
<path d="M2722 4190 c2 -8 18 -16 34 -17 18 -1 22 0 9 4 -11 3 -26 10 -34 17
-11 9 -13 8 -9 -4z"/>
<path d="M2095 4173 c11 -3 23 -10 28 -17 5 -8 9 -7 16 3 5 7 13 11 19 7 6 -3
13 -2 17 4 4 6 -13 10 -47 9 -29 -1 -44 -4 -33 -6z"/>
<path d="M2223 4173 c9 -2 23 -2 30 0 6 3 -1 5 -18 5 -16 0 -22 -2 -12 -5z"/>
<path d="M2862 4168 c6 -18 25 -20 31 -3 5 10 0 15 -14 15 -12 0 -19 -5 -17
-12z"/>
<path d="M1931 4124 c0 -11 3 -14 6 -6 3 7 2 16 -1 19 -3 4 -6 -2 -5 -13z"/>
<path d="M2530 4117 c0 -14 5 -29 10 -32 7 -4 8 3 4 22 -9 38 -14 42 -14 10z"/>
<path d="M2468 4112 c-4 -12 -2 -25 4 -28 15 -10 19 1 10 26 l-9 24 -5 -22z"/>
<path d="M1861 4108 c0 -7 4 -22 9 -33 7 -17 9 -15 9 13 1 17 -3 32 -9 32 -5
0 -10 -6 -9 -12z"/>
<path d="M2310 4101 c0 -11 -6 -21 -12 -24 -9 -3 -8 -7 4 -12 22 -9 61 28 45
44 -17 17 -37 13 -37 -8z"/>
<path d="M2376 4104 c-3 -9 -6 -17 -6 -18 0 -1 11 -2 25 -2 18 0 24 4 20 14
-3 7 -5 16 -5 18 0 12 -29 2 -34 -12z"/>
<path d="M2570 4108 c0 -9 5 -20 10 -23 13 -8 13 5 0 25 -8 13 -10 13 -10 -2z"/>
<path d="M2656 4105 c-8 -22 -8 -22 9 -29 17 -6 65 12 65 25 0 18 -22 20 -34
3 -13 -17 -14 -17 -23 0 -9 17 -10 17 -17 1z"/>
<path d="M2771 4104 c0 -11 3 -14 6 -6 3 7 2 16 -1 19 -3 4 -6 -2 -5 -13z"/>
<path d="M2850 4050 c0 -20 -19 -23 -32 -5 -4 6 -8 2 -8 -7 0 -11 8 -18 19
-18 11 0 26 -3 35 -6 12 -5 16 0 16 19 0 14 -7 27 -15 31 -10 4 -15 -1 -15
-14z"/>
<path d="M2137 4043 c-13 -12 -7 -23 13 -23 11 0 20 7 20 15 0 15 -21 21 -33
8z"/>
<path d="M2942 3971 c-10 -6 -9 -10 7 -14 14 -3 21 0 21 9 0 16 -9 18 -28 5z"/>
<path d="M2020 3966 c0 -2 7 -6 15 -10 8 -3 15 -1 15 4 0 6 -7 10 -15 10 -8 0
-15 -2 -15 -4z"/>
<path d="M3105 3960 c3 -5 8 -10 11 -10 2 0 4 5 4 10 0 6 -5 10 -11 10 -5 0
-7 -4 -4 -10z"/>
<path d="M1741 3934 c0 -11 3 -14 6 -6 3 7 2 16 -1 19 -3 4 -6 -2 -5 -13z"/>
<path d="M3470 3941 c0 -6 4 -11 9 -11 5 0 12 -8 15 -17 3 -11 4 -8 3 6 -2 24
-27 44 -27 22z"/>
<path d="M1956 3923 c-12 -12 -6 -33 9 -33 8 0 15 6 15 14 0 17 -14 28 -24 19z"/>
<path d="M3020 3905 c0 -9 9 -15 21 -15 18 0 19 2 9 15 -7 8 -16 15 -21 15 -5
0 -9 -7 -9 -15z"/>
<path d="M1892 3870 c0 -14 2 -19 5 -12 2 6 2 18 0 25 -3 6 -5 1 -5 -13z"/>
<path d="M1410 3865 c0 -8 4 -15 9 -15 5 0 14 7 21 15 10 13 9 15 -9 15 -12 0
-21 -6 -21 -15z"/>
<path d="M3560 3870 c0 -5 4 -10 9 -10 6 0 13 5 16 10 3 6 -1 10 -9 10 -9 0
-16 -4 -16 -10z"/>
<path d="M3098 3833 c7 -3 16 -2 19 1 4 3 -2 6 -13 5 -11 0 -14 -3 -6 -6z"/>
<path d="M3616 3824 c-10 -25 -7 -34 9 -34 8 0 15 9 15 19 0 26 -16 35 -24 15z"/>
<path d="M1356 3804 c-5 -12 -2 -15 10 -10 8 3 18 6 20 6 2 0 4 5 4 10 0 16
-27 11 -34 -6z"/>
<path d="M3150 3784 c0 -14 3 -14 15 -4 8 7 15 14 15 16 0 2 -7 4 -15 4 -8 0
-15 -7 -15 -16z"/>
<path d="M1760 3722 c0 -14 6 -22 16 -22 14 0 15 3 3 18 -7 9 -15 19 -16 21
-2 2 -3 -5 -3 -17z"/>
<path d="M3230 3719 c0 -5 -5 -7 -12 -3 -7 4 -8 3 -4 -4 10 -16 23 -15 30 3 3
8 1 15 -4 15 -6 0 -10 -5 -10 -11z"/>
<path d="M3751 3714 c0 -11 3 -14 6 -6 3 7 2 16 -1 19 -3 4 -6 -2 -5 -13z"/>
<path d="M3275 3620 c3 -5 8 -10 11 -10 2 0 4 5 4 10 0 6 -5 10 -11 10 -5 0
-7 -4 -4 -10z"/>
<path d="M3837 3583 c-16 -15 -5 -33 19 -33 20 0 25 4 20 16 -3 9 -6 18 -6 20
0 7 -26 5 -33 -3z"/>
<path d="M1070 3506 c0 -24 15 -26 28 -5 11 16 9 19 -8 19 -11 0 -20 -6 -20
-14z"/>
<path d="M3335 3500 c10 -11 19 -20 21 -20 1 0 0 9 -3 20 -3 11 -12 20 -21 20
-13 0 -12 -3 3 -20z"/>
<path d="M3910 3495 c0 -8 5 -15 10 -15 6 0 10 7 10 15 0 8 -4 15 -10 15 -5 0
-10 -7 -10 -15z"/>
<path d="M1650 3491 c0 -5 7 -11 15 -15 9 -3 15 0 15 9 0 8 -7 15 -15 15 -8 0
-15 -4 -15 -9z"/>
<path d="M1010 3423 c0 -29 12 -24 17 7 2 11 -2 20 -7 20 -6 0 -10 -12 -10
-27z"/>
<path d="M3973 3423 c-18 -7 -16 -23 2 -23 8 0 15 7 15 15 0 8 -1 15 -2 14 -2
0 -9 -3 -15 -6z"/>
<path d="M998 3363 c7 -3 16 -2 19 1 4 3 -2 6 -13 5 -11 0 -14 -3 -6 -6z"/>
<path d="M1605 3301 c-3 -5 -1 -12 5 -16 5 -3 10 1 10 9 0 18 -6 21 -15 7z"/>
<path d="M4040 3296 c0 -9 5 -16 10 -16 6 0 10 4 10 9 0 6 -4 13 -10 16 -5 3
-10 -1 -10 -9z"/>
<path d="M1611 3234 c0 -11 3 -14 6 -6 3 7 2 16 -1 19 -3 4 -6 -2 -5 -13z"/>
<path d="M890 3170 c0 -5 5 -10 10 -10 6 0 10 5 10 10 0 6 -4 10 -10 10 -5 0
-10 -4 -10 -10z"/>
<path d="M4103 3165 c-9 -10 -9 -16 -2 -20 14 -9 22 0 17 18 -2 13 -5 13 -15
2z"/>
<path d="M1591 3074 c0 -11 3 -14 6 -6 3 7 2 16 -1 19 -3 4 -6 -2 -5 -13z"/>
<path d="M848 3043 c7 -3 16 -2 19 1 4 3 -2 6 -13 5 -11 0 -14 -3 -6 -6z"/>
<path d="M4000 3030 c0 -5 5 -10 11 -10 5 0 7 5 4 10 -3 6 -8 10 -11 10 -2 0
-4 -4 -4 -10z"/>
<path d="M4160 3006 c0 -9 -5 -16 -12 -16 -6 0 -4 -7 5 -18 10 -10 17 -24 17
-30 0 -7 5 -12 10 -12 16 0 12 66 -5 80 -12 10 -15 10 -15 -4z"/>
<path d="M820 3001 c0 -6 5 -11 11 -11 6 0 9 -7 5 -15 -8 -22 18 -18 40 6 19
21 19 22 -4 15 -14 -5 -29 -3 -37 4 -11 9 -15 9 -15 1z"/>
<path d="M1070 2990 c0 -5 5 -10 10 -10 6 0 10 5 10 10 0 6 -4 10 -10 10 -5 0
-10 -4 -10 -10z"/>
<path d="M1368 2953 c7 -3 16 -2 19 1 4 3 -2 6 -13 5 -11 0 -14 -3 -6 -6z"/>
<path d="M820 2940 c0 -5 5 -10 10 -10 6 0 10 5 10 10 0 6 -4 10 -10 10 -5 0
-10 -4 -10 -10z"/>
<path d="M3395 2940 c-3 -5 1 -10 9 -10 9 0 16 5 16 10 0 6 -4 10 -9 10 -6 0
-13 -4 -16 -10z"/>
<path d="M4078 2933 c7 -3 16 -2 19 1 4 3 -2 6 -13 5 -11 0 -14 -3 -6 -6z"/>
<path d="M4000 2905 c0 -8 5 -15 10 -15 6 0 10 7 10 15 0 8 -4 15 -10 15 -5 0
-10 -7 -10 -15z"/>
<path d="M4153 2893 c9 -2 23 -2 30 0 6 3 -1 5 -18 5 -16 0 -22 -2 -12 -5z"/>
<path d="M1590 2855 c0 -8 7 -15 15 -15 8 0 15 4 15 9 0 5 -7 11 -15 15 -9 3
-15 0 -15 -9z"/>
<path d="M3412 2850 c0 -14 2 -19 5 -12 2 6 2 18 0 25 -3 6 -5 1 -5 -13z"/>
<path d="M820 2819 c0 -5 5 -7 10 -4 6 3 10 8 10 11 0 2 -4 4 -10 4 -5 0 -10
-5 -10 -11z"/>
<path d="M4098 2783 c7 -3 16 -2 19 1 4 3 -2 6 -13 5 -11 0 -14 -3 -6 -6z"/>
<path d="M4000 2770 c0 -5 5 -10 10 -10 6 0 10 5 10 10 0 6 -4 10 -10 10 -5 0
-10 -4 -10 -10z"/>
<path d="M3387 2763 c-16 -16 -6 -43 16 -43 17 0 19 2 8 9 -12 8 -12 12 -2 25
11 13 11 16 -1 16 -8 0 -18 -3 -21 -7z"/>
<path d="M4228 2723 c7 -3 16 -2 19 1 4 3 -2 6 -13 5 -11 0 -14 -3 -6 -6z"/>
<path d="M780 2685 c0 -37 16 -47 27 -17 4 9 11 20 16 23 14 10 -1 29 -24 29
-15 0 -19 -7 -19 -35z"/>
<path d="M4220 2596 c0 -80 3 -96 15 -96 13 0 15 15 13 92 -2 62 -7 93 -15 96
-10 3 -13 -20 -13 -92z"/>
<path d="M3961 2644 c0 -11 3 -14 6 -6 3 7 2 16 -1 19 -3 4 -6 -2 -5 -13z"/>
<path d="M1590 2640 c0 -6 7 -10 15 -10 8 0 15 2 15 4 0 2 -7 6 -15 10 -8 3
-15 1 -15 -4z"/>
<path d="M780 2610 c0 -5 7 -7 15 -4 8 4 15 8 15 10 0 2 -7 4 -15 4 -8 0 -15
-4 -15 -10z"/>
<path d="M3738 2613 c7 -3 16 -2 19 1 4 3 -2 6 -13 5 -11 0 -14 -3 -6 -6z"/>
<path d="M1578 2593 c7 -3 16 -2 19 1 4 3 -2 6 -13 5 -11 0 -14 -3 -6 -6z"/>
<path d="M780 2533 c0 -52 14 -71 27 -35 4 9 11 20 17 24 8 5 7 11 -1 19 -10
10 -9 15 4 24 14 11 12 13 -15 17 l-32 5 0 -54z"/>
<path d="M1121 2564 c0 -11 3 -14 6 -6 3 7 2 16 -1 19 -3 4 -6 -2 -5 -13z"/>
<path d="M1630 2566 c0 -9 5 -16 10 -16 6 0 10 4 10 9 0 6 -4 13 -10 16 -5 3
-10 -1 -10 -9z"/>
<path d="M4155 2570 c3 -5 8 -10 11 -10 2 0 4 5 4 10 0 6 -5 10 -11 10 -5 0
-7 -4 -4 -10z"/>
<path d="M3340 2541 c0 -6 4 -13 10 -16 6 -3 7 1 4 9 -7 18 -14 21 -14 7z"/>
<path d="M1661 2521 c-11 -7 -12 -13 -4 -23 6 -7 13 -22 16 -33 2 -11 5 -1 6
23 0 23 0 42 -1 42 -2 0 -9 -4 -17 -9z"/>
<path d="M958 2503 c7 -3 16 -2 19 1 4 3 -2 6 -13 5 -11 0 -14 -3 -6 -6z"/>
<path d="M3701 2474 c0 -11 3 -14 6 -6 3 7 2 16 -1 19 -3 4 -6 -2 -5 -13z"/>
<path d="M4220 2450 c0 -11 5 -20 11 -20 8 0 7 -5 -1 -15 -7 -9 -20 -13 -29
-10 -12 5 -12 2 2 -13 9 -10 17 -33 17 -51 0 -29 2 -31 15 -17 10 10 15 35 15
80 0 52 -3 66 -15 66 -8 0 -15 -9 -15 -20z"/>
<path d="M780 2440 c0 -5 4 -10 9 -10 6 0 13 5 16 10 3 6 -1 10 -9 10 -9 0
-16 -4 -16 -10z"/>
<path d="M1018 2443 c7 -3 16 -2 19 1 4 3 -2 6 -13 5 -11 0 -14 -3 -6 -6z"/>
<path d="M772 2399 c-10 -15 -11 -24 -3 -32 6 -6 11 -27 11 -46 0 -33 1 -34
17 -18 14 14 15 21 6 36 -10 15 -8 23 8 40 20 21 20 21 0 21 -11 0 -21 5 -23
10 -2 6 -9 1 -16 -11z"/>
<path d="M1050 2385 c0 -8 5 -15 10 -15 6 0 10 7 10 15 0 8 -4 15 -10 15 -5 0
-10 -7 -10 -15z"/>
<path d="M1690 2384 c0 -8 5 -12 10 -9 6 3 10 10 10 16 0 5 -4 9 -10 9 -5 0
-10 -7 -10 -16z"/>
<path d="M3280 2385 c0 -8 5 -15 10 -15 6 0 10 7 10 15 0 8 -4 15 -10 15 -5 0
-10 -7 -10 -15z"/>
<path d="M4131 2384 c0 -11 3 -14 6 -6 3 7 2 16 -1 19 -3 4 -6 -2 -5 -13z"/>
<path d="M1535 2360 c-3 -5 1 -10 9 -10 9 0 16 5 16 10 0 6 -4 10 -9 10 -6 0
-13 -4 -16 -10z"/>
<path d="M3998 2353 c7 -3 16 -2 19 1 4 3 -2 6 -13 5 -11 0 -14 -3 -6 -6z"/>
<path d="M960 2340 c-13 -8 -12 -10 3 -10 9 0 17 5 17 10 0 12 -1 12 -20 0z"/>
<path d="M1710 2341 c0 -5 6 -14 14 -20 12 -10 13 -8 9 8 -5 21 -23 30 -23 12z"/>
<path d="M4091 2324 c0 -11 3 -14 6 -6 3 7 2 16 -1 19 -3 4 -6 -2 -5 -13z"/>
<path d="M1591 2304 c0 -11 3 -14 6 -6 3 7 2 16 -1 19 -3 4 -6 -2 -5 -13z"/>
<path d="M3268 2313 c7 -3 16 -2 19 1 4 3 -2 6 -13 5 -11 0 -14 -3 -6 -6z"/>
<path d="M3450 2305 c0 -8 2 -15 4 -15 2 0 6 7 10 15 3 8 1 15 -4 15 -6 0 -10
-7 -10 -15z"/>
<path d="M3581 2304 c0 -11 3 -14 6 -6 3 7 2 16 -1 19 -3 4 -6 -2 -5 -13z"/>
<path d="M3701 2304 c0 -11 3 -14 6 -6 3 7 2 16 -1 19 -3 4 -6 -2 -5 -13z"/>
<path d="M3220 2290 c-9 -6 -10 -10 -3 -10 6 0 15 5 18 10 8 12 4 12 -15 0z"/>
<path d="M1773 2278 c2 -7 10 -13 17 -13 7 0 15 6 18 13 2 7 -5 12 -18 12 -13
0 -20 -5 -17 -12z"/>
<path d="M1721 2264 c0 -11 3 -14 6 -6 3 7 2 16 -1 19 -3 4 -6 -2 -5 -13z"/>
<path d="M847 2229 c7 -7 15 -10 18 -7 3 3 -2 9 -12 12 -14 6 -15 5 -6 -5z"/>
<path d="M1218 2223 c7 -3 16 -2 19 1 4 3 -2 6 -13 5 -11 0 -14 -3 -6 -6z"/>
<path d="M1736 2221 c-4 -7 -5 -15 -2 -18 9 -9 19 4 14 18 -4 11 -6 11 -12 0z"/>
<path d="M1807 2223 c-12 -11 -8 -23 8 -23 8 0 15 7 15 15 0 16 -12 20 -23 8z"/>
<path d="M3280 2214 c0 -8 5 -12 10 -9 6 3 10 10 10 16 0 5 -4 9 -10 9 -5 0
-10 -7 -10 -16z"/>
<path d="M820 2190 c0 -6 7 -10 15 -10 8 0 15 2 15 4 0 2 -7 6 -15 10 -8 3
-15 1 -15 -4z"/>
<path d="M3150 2188 c0 -4 14 -8 30 -8 17 0 30 2 30 4 0 2 -13 6 -30 8 -16 3
-30 1 -30 -4z"/>
<path d="M4170 2180 c0 -5 5 -10 10 -10 6 0 10 5 10 10 0 6 -4 10 -10 10 -5 0
-10 -4 -10 -10z"/>
<path d="M3321 2154 c0 -11 3 -14 6 -6 3 7 2 16 -1 19 -3 4 -6 -2 -5 -13z"/>
<path d="M3418 2163 c7 -3 16 -2 19 1 4 3 -2 6 -13 5 -11 0 -14 -3 -6 -6z"/>
<path d="M1736 2131 c-4 -7 -5 -15 -2 -18 9 -9 19 4 14 18 -4 11 -6 11 -12 0z"/>
<path d="M1786 2131 c-3 -5 1 -14 9 -21 13 -10 15 -9 15 9 0 21 -14 28 -24 12z"/>
<path d="M3210 2131 c0 -12 2 -13 48 -17 22 -1 32 2 29 9 -5 15 -77 22 -77 8z"/>
<path d="M3581 2084 c0 -11 3 -14 6 -6 3 7 2 16 -1 19 -3 4 -6 -2 -5 -13z"/>
<path d="M4160 2065 c-7 -9 -9 -22 -5 -32 5 -10 7 -24 6 -32 -1 -7 4 -11 11
-9 14 5 23 88 9 88 -5 0 -14 -7 -21 -15z"/>
<path d="M840 2045 c0 -10 7 -15 18 -13 21 4 19 22 -2 26 -10 2 -16 -3 -16
-13z"/>
<path d="M3500 2050 c0 -5 7 -7 15 -4 8 4 15 8 15 10 0 2 -7 4 -15 4 -8 0 -15
-4 -15 -10z"/>
<path d="M3628 2053 c7 -3 16 -2 19 1 4 3 -2 6 -13 5 -11 0 -14 -3 -6 -6z"/>
<path d="M1018 1993 c7 -3 16 -2 19 1 4 3 -2 6 -13 5 -11 0 -14 -3 -6 -6z"/>
<path d="M3820 1951 c0 -5 16 -11 35 -13 36 -4 47 5 19 16 -23 9 -54 7 -54 -3z"/>
<path d="M1076 1881 c-4 -7 -5 -15 -2 -18 9 -9 19 4 14 18 -4 11 -6 11 -12 0z"/>
<path d="M4112 1860 c0 -14 2 -19 5 -12 2 6 2 18 0 25 -3 6 -5 1 -5 -13z"/>
<path d="M908 1863 c6 -2 18 -2 25 0 6 3 1 5 -13 5 -14 0 -19 -2 -12 -5z"/>
<path d="M958 1793 c7 -3 16 -2 19 1 4 3 -2 6 -13 5 -11 0 -14 -3 -6 -6z"/>
<path d="M4026 1782 c-3 -6 2 -13 11 -16 14 -6 14 -8 -3 -21 -17 -12 -17 -14
-2 -15 9 0 19 -6 22 -12 3 -7 4 5 3 26 -2 38 -19 58 -31 38z"/>
<path d="M950 1713 c0 -29 2 -29 19 5 10 18 9 22 -4 22 -10 0 -15 -9 -15 -27z"/>
</g>
</svg>
